<svg xmlns="http://www.w3.org/2000/svg" viewBox="0 0 168 100">
<!-- SVG created with Arrow, by QuiverAI (https://quiver.ai) -->
  <style type="text/css">.cls-0 {fill:#CED1D5;}
.cls-1 {fill:#616466;}
.cls-2 {fill:#7E8185;}
.cls-3 {fill:#2B2F31;}</style>
  <rect class="cls-0" width="168" height="100"/>
  <path class="cls-2" d="m5.4 33.4c0.2 0.7-0.4 0.6-0.7 0.9-2.3 2.4-2.1 8.7 1.7 12.7 1.6 1.9 5.1 3.5 6.6 0.6l0.5-0.2 0.3 0.3c1 0.9-0.8 1.6-1.4 2-5.5 1.8-9.7-3.7-10.1-8.7-0.3-2.2 0.1-6.6 2.3-7.7l0.8 0.1z"/>
  <path class="cls-2" d="m15.4 41.1c0.5-1 2.1-1.9 3.3-1.8l-0.3 0.5c-3 1.1-0.7 2.2 0.2 4l-0.2 0.8c-1.5 0-2.3-2.8-4.8-3.4 0.3-0.6 1.4-0.1 1.8-0.1z"/>
  <path class="cls-2" d="m22.8 41.3c0.7 0.6 2 0.8 3 0.1l-0.1 0.5c-0.9 1.2-3.1 0.5-4.5-1-0.4-3.6 1.2-3.4 2-3.2 1.6 1.1 2.3 2.6-0.4 3.6zm-0.3-0.8c1.1-0.3 0.6-2.8-0.4-1.9 0 0.6-0.2 1.6 0.4 1.9z"/>
  <path class="cls-2" d="m31.4 36.8-1.3 2.8c-3.9 1.3-3-3.8-2.2-6 1.8-1.8 3.5 1.2 4.2 2.4l2.5 1.1c-1.1 0.9-2.2 0-3.2-0.3zm-2.7-2.8c-0.6 1.3-0.3 3.4 0.1 5.1 0.9-0.4 1.4-1.8 1.8-2.8-0.8-0.6-0.9-2.8-1.9-2.3z"/>
  <path class="cls-2" d="m37.3 25.9c1.3 2 3.1 4.1 4.6 6.5l-0.1 0.9c-1.9-1.7-3.3-4.3-5.3-6.5-1.4 0.8-2.7 2.6-4.2 3.7l-0.9-0.5 0.1-0.3 4.4-3.9c-1.4-1.6-3.2-4.4-3.5-6.6l0.6-0.2c1.4 1.4 1.2 4 3.8 5.9l3-1.4h0.8l-3.3 2.4z"/>
  <path class="cls-2" d="m44.6 27.4c1 1.5 2.8 0.2 4.3-0.9l-1.9 2.5c-1.1 0.7-3-0.4-3.6-1.4-0.2-1.7 0.2-4.6 2.4-4.3 1.7 0.9 0.7 3.6-1.2 4.1zm-0.2-0.8c0.7-0.4 1.2-1.4 0.7-2.4-0.7 0.4-0.8 1.5-0.7 2.4z"/>
  <path class="cls-2" d="m52.3 19c-1-1.9-4.8-4.9-3.9-5.7 0.9-0.7 3.2 4.3 4.8 5.7 1 1.1 2.2 3.5 4.2 2.7-0.6 2.2-3.2 0.2-4-1.3 0.6 2-0.4 6.3-3.2 5.1-1.6-1.6-1.1-6.9 2.1-6.5zm-1.7 6.1c1.2 0.4 2.5-3.5 1.5-4.7-2.3-0.3-2.1 3.6-1.5 4.7z"/>
  <path class="cls-2" d="m67.6 9.2-0.8-0.1c2.1-4.1 5.8-0.5 5.2 2.4-0.6 2.4-3.4 1.8-4.2 0.1 2.1 1.5 3 0.1 2.8-1.7-0.4-2-2.2-3-3-0.7zm-0.1 4.1c-1.9-1.7-6.4-8.9-6.4-10.7l0.4-0.1c1.5 1.9 2.9 6 6.9 10.2l-0.2 0.6h-0.7z"/>
  <path class="cls-2" d="m75.9 10.5c-1.3 3.5 1.2 8.9 5.7 9.3 4.6 0.3 1.3-5.4 0-7.4l-4.7-6.5-0.3 1.5c-1.8 2-4.2-1.4-4.6-2.5 1.5 0.2 3.6 4.2 4.4 0.5l-1.2-1.6 0.9-0.3c3.4 3.4 8.3 9.6 9 15 0.4 3.6-6.2 2.7-8.6-0.9-1.3-2-1.9-5-0.6-7.1z"/>
  <path class="cls-1" d="m153.8 3.1c-3 1.4-6.3 2.8-9.2 5l-0.2 0.4-0.3-0.1c-1 0.7 0 2-0.6 1.7l0.1-0.9c-1.5 1.3-3.7 1.9-5.1 3.2-4.1 3.2-7.4 7-10.7 11.6-4.4 5.6-7.8 13.6-11.4 21.2l-1.8 4.7-0.5 0.7-0.9-0.2v-0.4c2.4-6.4 6.3-13.2 9.6-19.6 3.2-5.9 7.4-10.8 11.7-15.5l0.3-0.3-0.2-1h0.8l2.7-2.2c1.4-0.8 3-2 4.4-2.8h0.3c2.8-1.7 6.7-4 10.8-6.2l0.5 0.2-0.3 0.5z"/>
  <path class="cls-1" d="m61.8 55.6c1.4 1 2.7 3.8 4 5.5l8 10.8-0.2 0.6-0.7-0.1-7.7-9.8-4.1-6c0.9 5 2.4 10 1.3 20.2l-0.8 1.7-1.2-0.6c2.1-6.5 1.7-16.8-0.3-22.3h1.7z"/>
  <path class="cls-1" d="m76.9 60c-1.7-1.4-3.4 0.4-2.5 3.4 1.2 3.1 3.1 0.8 2.8-2.5 1.3 3.2-0.8 5.9-3.2 3.6-1.4-1.9-0.6-6.6 1.9-5.9l1 1.4z"/>
  <path class="cls-1" d="m74 52.6 3.4 5.4 4.4 5.1-0.7 0.3c-2.7-2-6.9-8.4-7.9-10.8h0.8z"/>
  <path class="cls-1" d="m76.4 53.4 0.8-1.3c2.4-0.5 1.3 2.8-0.3 2l-0.5-0.7z"/>
  <path class="cls-1" d="m80.5 45c0.5 2.4 2.1 4.4 3.3 6.4 1.1-1 2.3-2.5 3.7-3.4l0.1 0.1-3.4 4.3 3.4 4.7v0.5c-1.4-0.5-2.7-3-4.1-4.7l-1.4 3-1-0.3 1.9-3.2c-1.4-1.8-3.4-5-4.2-7.3l1.7-0.1z"/>
  <path class="cls-1" d="m84.5 40.5 4 6.1c2-2.7 4.5-0.7 6.3 0.3l-0.2 0.7c-1.7 0.4-3.2-2.7-4.8-1.2l1.1 3-0.9 0.5c-2.5-1.8-5.4-6.5-6.6-9.3l1.1-0.1z"/>
  <path class="cls-1" d="m98 39 1.6 2.9 7 9.2c1 2 4.3 7.5 2 8.3-2.6 1.1-8-0.5-10-2.5-1.2-1.3 0-3.9 1-5.8-0.5 2.3-1.6 4.9 0.8 6.3 2 0.7 7.5 3.2 7.8 0.6-0.3-4.9-6.2-10.4-9.2-15.1l-0.6 1c-2 1.6-4.3-1.4-4.8-3.4h0.6c0.9 0.7 2.3 4 3.7 2.1l-0.9-3.4 1-0.2z"/>
  <path class="cls-1" d="m105.4 35.5 1.8 1.1 1.9-0.6-1.1 1.4-2.5-0.5c0.3 1.1-1 2.7-1.6 3.6-3.3 0.1-2.8-5-2.3-6.9 1.4-0.6 3 0.9 3.8 1.9zm-3-1.5-0.3 0.1c-0.1 1.4 0.1 3.9 1.3 5.3 1.2-1.5 2.1-4.8-1-5.4z"/>
  <path class="cls-1" d="m116.5 25.5 0.1-0.1h0.2c0.7 1.7-1.2 3.6-1.6 5.5-2.2 0.2-3.4-1.3-5.1-1l0.5 2.5-0.6 0.6-2.6-2.9 0.2-0.1 1.5 0.9c-0.2-3.5 2.3-1.9 4.9-1 1.2-0.9 2.4-2.9 2.5-4.4z"/>
  <path class="cls-2" d="m79.2 57.1 1.2 0.3 2.5 2.6-0.3 0.4c-1.2-0.8-2.2-2.3-3.4-3.3z"/>
  <path class="cls-3" d="m16.6 66.4h0.8l-0.4 0.5-0.4-0.5z"/>
  <path class="cls-3" d="m49.8 85.5 0.3-0.1 0.4 0.6-0.7-0.5z"/>
  <path class="cls-3" d="m164.6 97.4 1.6-0.3-0.6 0.5-1-0.2z"/>
  <path class="cls-3" d="m150.1 95h-0.1 0.1z"/>
  <path class="cls-3" d="m150.1 94.6h-0.2 0.2z"/>
  <path class="cls-3" d="m150.4 94.6h-0.5 0.2 0.3z"/>
  <path class="cls-2" d="m62.1 72.4c1.1-2.4 3.3-5 5.5-6.3l-4.6 6.3h-0.9z"/>
  <path class="cls-1" d="m161.6 72.4 0.5-0.8-0.5 0.8z"/>
  <path class="cls-3" d="m150.1 94.6v-0.2 0.2z"/>
  <path class="cls-2" d="m62.6 71.6 0.4-0.7-0.4 0.7z"/>
</svg>