<svg xmlns="http://www.w3.org/2000/svg" viewBox="0 -108 600 337.5" width="1920" height="1080">
<!-- Derived from QuiverAI vectorization for Paper Portal. -->
<style type="text/css">.cls-0 {fill:#EDEDF0;}
.cls-1 {fill:none;stroke:#979797;stroke-linecap:round;stroke-linejoin:round;}
.cls-2 {fill:none;stroke:#787778;stroke-width:0.8;stroke-linecap:round;stroke-linejoin:round;}
.cls-3 {fill:#787778;}</style>
  <rect width="600" height="139" fill="#f7f7f6"/>
  <path class="cls-1" d="m0.2 128.3c78 0.7 189.7 0 253.4 0.5 80.5 0.6 232.4 2.2 255 2.7l90.6 1"/>
  <path class="cls-1" d="m512.8 27.7 78.7-23.9-2.5 128.7"/>
  <path class="cls-1" d="m512.3 27.3-2.3 1-0.9 106.2"/>
  <path class="cls-1" d="m576.5 68.5 4.8-1.5 0.2 16.5-5 1.5v-9l-7.5 2.5 7.5-3.5v-6.5z"/>
  <g transform="translate(415 0)">
  <path class="cls-1" d="m575.5 75.5 4.5-0.5"/>
  <path class="cls-2" d="m78 36.4c-4.6 0.9-12.1 9.1-12 15.9 0.5 8.3 3.5 13.6 9.4 16.1 13.2 5.2 22.4-0.1 23.3-11.1 0.9-11.1-9.6-20.9-13-19.3-1.8 0.6-3.3 1.5-4.2 2.1"/>
  <path class="cls-2" d="m83.5 72 2.5 31.3-14.1 21.2 5.6 3.5 3 0.5"/>
  <path class="cls-2" d="m84.5 81.5-13.5 12c-0.9 1 3.5 7.7 4.5 8 0 0 1.7-2.9 2.4-2 0.8 1-1.7 4-2.4 3"/>
  <path class="cls-2" d="m86.5 81.5c1.6 0.8 7.4 9.7 8 10l9-6.5c1.6-0.5-0.4 5.8-1.5 4.5l-1.5-1.5"/>
  <path class="cls-2" d="m86.5 97.5c5.9 2.7 17.6 15.5 18 17s-4 11.5-3.5 12 6.1-0.4 5.5 0l-1 1.5-5-0.5"/>
  <path class="cls-2" d="m71.5 124.5v1l4 2"/>
  <path class="cls-2" d="m77.5 39.5c1.5-1.5 5.1-3.7 10.4-5"/>
  <path class="cls-2" d="m77.5 60c4.1 3.7 9.6 3.5 12-1.5"/>
  <circle class="cls-3" cx="80.5" cy="49.5" r="1.7"/>
  <circle class="cls-3" cx="89.7" cy="49.5" r="1.5"/>
  </g>
</svg>
