<svg xmlns="http://www.w3.org/2000/svg" viewBox="0 0 236.7 142.7">
<!-- SVG created with Arrow, by QuiverAI (https://quiver.ai) -->
  <style type="text/css">.cls-0 {fill:#A8A29D;}
.cls-1 {fill:#928C88;}
.cls-2 {fill:none;stroke:#6D6966;stroke-width:0.6;stroke-linecap:round;stroke-linejoin:round;stroke-miterlimit:10;}
.cls-3 {fill:none;stroke:#6D6966;stroke-width:0.8;stroke-miterlimit:10;}
.cls-4 {fill:#54524E;}
.cls-5 {fill:none;stroke:#3F3D38;stroke-width:0.7;stroke-miterlimit:10;}
.cls-6 {fill:none;stroke:#3F3D38;stroke-width:0.7;stroke-linecap:round;stroke-miterlimit:10;}
.cls-7 {fill:none;stroke:#3F3D38;stroke-width:0.9;stroke-linecap:round;stroke-miterlimit:10;}
.cls-8 {fill:none;stroke:#3F3D38;stroke-width:0.5;stroke-linecap:round;stroke-miterlimit:10;}
.cls-9 {fill:#3F3D38;}
.cls-10 {fill:none;stroke:#3F3D38;stroke-width:1.2;stroke-linecap:round;stroke-miterlimit:10;}
.cls-11 {fill:none;stroke:#6D6966;stroke-width:0.7;stroke-linecap:round;stroke-linejoin:round;stroke-miterlimit:10;}
.cls-12 {fill:none;stroke:#54524E;stroke-width:0.7;stroke-linecap:round;stroke-miterlimit:10;}</style>
  <rect class="cls-0" width="236.7" height="142.7"/>
  <path class="cls-1" d="m69.8 101.1c-4.9 8.9-3.4 19.9 7.8 21.9 9 1.6 16.5-5.2 14.8-13.5-1.5-7.7-16.5-13.4-22.6-8.4z"/>
  <path class="cls-4" d="m82 142.7h9.1c-2.9-1-6.3-1.2-9.1 0z"/>
  <path class="cls-9" d="m64.1 142.7h1.6c-0.6-0.6-1.1-0.5-1.6 0z"/>
  <path class="cls-5" d="m17.2 34.1c-2.9 1.5-7.4 8.1-7.4 13.9-0.4 5.7 1.5 11.5 7.2 15.4 5.7 4.3 12 4.6 16.3 1.7 3.7-3.1 4.5-4.7 4.3-11.2-0.5-3.7-2.8-8.9-4.9-12.1-3.2-3.9-9.4-8.4-15.5-7.7z"/>
  <path class="cls-4" d="m20.3 37c1.9-0.6 4.7-0.4 6.7 0.4 2.1-0.4-1-2.5-6.7-0.4z"/>
  <path class="cls-4" d="m22.2 37.8c2.9 0.9 3.8 0.7 5.6-0.1-1.2-0.8-3.6-0.4-5.6 0.1z"/>
  <path class="cls-8" d="m21 55c0.3 4.4 5.3 3 10.4 0.4-4.9 1.7-9.9 3.7-10.4-0.5l0.7 0.2"/>
  <path class="cls-9" d="m16.5 47.4-0.8 2.4 0.7 0.5 0.5-0.5 0.3-1.9 3.8-0.2-3.7-0.7 0.1-0.7-0.7 0.3-0.2 0.8z"/>
  <path class="cls-9" d="m25.8 49 1.2 0.5 0.9-3.4 4 1.6-4.6-2.7-0.5 0.4z"/>
  <path class="cls-7" d="m11.6 80.8 0.3 13.1 0.6-11.9c1.7-2.3 12-10.9 12.9-11.5l1-1.6 0.3-0.4"/>
  <path class="cls-6" d="m26.6 68.4c1.4 11.7 4 22.2 4.3 32.2l-0.1 7.1 0.4 4.7"/>
  <path class="cls-5" d="m29.9 68c6.2 5.8 18.3 8.9 22 13.2l1.6 1.8"/>
  <path class="cls-7" d="m53.5 83.9c0.8-1.7 4.9-5.4 6.4-7.1"/>
  <path class="cls-8" d="m10.9 83.1c-2.5 2.5-6.8 7.3-7.2 14.5 1-4.9 2.2-6.7 3.5-9.1"/>
  <path class="cls-10" d="m6.1 136.9 9.3-4.6 10.5-6.8 4-9.6"/>
  <path class="cls-5" d="m31.7 113.1 9.5 8.3-0.4 6 0.5 11.9"/>
  <path class="cls-9" d="m31.4 113.8 9 10.3 0.2-2.4-8.7-9-0.6 0.2z"/>
  <path class="cls-6" d="m15.5 132-5 5.4 5.9-5.6"/>
  <path class="cls-8" d="m1.6 138.8c3.4 0.9 8.2-0.6 13.7 0.4 5.7-0.2 8.1-0.8 15.6 0.1l9.1-0.3"/>
  <path class="cls-11" d="m61.6 138.7c8.8-0.3 16.7-0.6 25.3-1l16.9 0.2 6.7-0.3 8.6-0.1 9.9-0.5 11.7-0.2 10.8-0.4h11.1l15.1-0.1 6.7 0.3 14.7-0.4c3.9-0.2 8.9 0 14.7-1.4-8.8 0.5-18.9 0.8-36.2 1.4"/>
  <path class="cls-3" d="m166.5 21.6"/>
  <path class="cls-3" d="m166.6 21.7"/>
  <path class="cls-3" d="m166.6 21.7"/>
  <path class="cls-3" d="m166.6 21.7"/>
  <path class="cls-3" d="m166.6 21.7"/>
  <path class="cls-3" d="m166.6 21.7"/>
  <path class="cls-2" d="m166.6 21.7"/>
  <path class="cls-3" d="m166.6 21.7"/>
  <path class="cls-3" d="m166.6 21.7"/>
  <path class="cls-3" d="m166.6 21.7"/>
  <path class="cls-3" d="m166.6 21.7"/>
  <path class="cls-3" d="m166.6 21.7"/>
  <path class="cls-3" d="m166.6 21.7"/>
  <path class="cls-3" d="m166.6 21.7"/>
  <path class="cls-3" d="m166.6 21.7"/>
  <path class="cls-3" d="m166.6 22 0.5 4.2-0.2 1.6 0.6 16.4 2.4 21.8c1.7 12.1 3.3 43.1 6 57.8l1.7 13.4 0.2 0.2"/>
  <path class="cls-3" d="m166.5 21.8c2.4-0.9 14.4-6 24.6-9.6 8.4-2 15.9-5 26.6-7.2 1.5 2.5 1 4.4 1.3 8.8 1.4 13.9 1.7 26.1 4.1 41.3 2.8 14.6 4.6 28 6.8 81.6"/>
  <path class="cls-12" d="m217.9 64.1c-1.4-0.6-2.8 0.9-4.9 0.7l0.4 11.2 5.2-1.3"/>
  <path class="cls-12" d="m212.1 65.4 1.4-0.2-1.3 0.7 1.6 3.7-1.6 0.3 0.1 6"/>
  <path class="cls-9" d="m205.8 72.7c4-0.6 7.3-2 12.6-2.5l-1-1.1-11.5 2.4-0.1 1.1v0.1z"/>
  <path class="cls-4" d="m205.8 72.7 0.3-0.3-0.3-0.9h0.1-0.1-0.1c-0.6 0.1 0 1.1 0.1 1.2z"/>
  <path class="cls-12" d="m212.8 76 0.5 0.1 5-1.3"/>
  <path class="cls-9" d="m212.9 76.5 5-1.2-0.3-0.4-4.8 0.7h-0.4z"/>
  <path class="cls-4" d="m212.7 76.5v-0.9l-0.4 0.1h0.1l-0.7 0.2 1 0.6z"/>
  <path class="cls-12" d="m217.5 64c1.6 3.3 1.9 9.3 2.7 11.9l-0.6-0.1"/>
  <path class="cls-4" d="m162.3 31 0.3 1.9-0.1-2.1z"/>
  <path class="cls-4" d="m163.8 30.7 1.6 0.3 1 2.4-0.7-2.4z"/>
  <path class="cls-4" d="m147.2 26 0.7 0.4-0.4-0.2-0.1 0.4z"/>
  <path class="cls-4" d="m113.7 29.7 0.4 1v-0.6z"/>
  <path class="cls-4" d="m77.7 23.9 0.6-1.2-0.4 0.5z"/>
  <path class="cls-4" d="m96.8 1.8 0.4-1-0.2 1z"/>
  <path class="cls-9" d="m29.5 72.9 0.4 0.1-0.2 0.1z"/>
  <path class="cls-4" d="m95.2 62.3 0.7-0.6-0.6 0.7z"/>
  <path class="cls-4" d="m91.6 55.9 0.6-0.1-0.4-0.2z"/>
  <path class="cls-4" d="m72.1 89.3 1-0.4-0.7 0.3z"/>
</svg>